<svg width="250" height="250" xmlns="http://www.w3.org/2000/svg">
 <defs>
  <linearGradient y2="0" x2="1" y1="0" x1="0" id="mid">
   <stop offset="0" stop-color="#2d0633"/>
   <stop offset="1" stop-color="#fe4690"/>
  </linearGradient>
  <linearGradient y2="0" x2="1" y1="0" x1="0" id="bottom">
   <stop offset="0" stop-color="#fafc3f"/>
   <stop offset="1" stop-color="#026733"/>
  </linearGradient>
  <linearGradient y2="0" x2="1" y1="0.722656" x1="0.246094" id="svg_2">
   <stop offset="0" stop-color="#ff3a2b"/>
   <stop offset="1" stop-color="#ffd025"/>
  </linearGradient>
 </defs>
 <g>
  <title>background</title>
  <rect x="-1" y="-1" width="252" height="252" id="canvas_background" fill="none"/>
 </g>
 <g>
  <title>Layer 1</title>
  <g id="svg_1">
   <path id="svg_4" d="m129.99999,13.66656c0,0 -123.33309,222.66623 -123.66698,222.66623c0.33389,0 79.66682,-102.99953 125.66698,-129.99974c46.00016,-27.00021 10.00002,-68.9999 -1.66666,-92.99975" fill="url(#svg_2)"/>
   <path id="svg_9" d="m6.74942,236.24904c0,0 43.49986,-65.49978 93.49968,-105.49964c-9.74997,46.99984 22.99993,30.24989 42.49986,29.4999c-54.49982,50.99983 -86.74971,71.74976 -135.99954,75.99974z" fill="url(#mid)"/>
   <path id="svg_7" d="m6.99942,236.49904c0,0 79.99973,3.99998 124.74957,-24.74991c47.99983,-24.24992 50.99983,21.74992 109.49962,24.24991c-0.74999,-14.99995 -25.9999,-77.99973 -59.49978,-86.2497c-33.49988,-8.24997 -45.68735,23.43741 -93.18719,55.1248c-47.49984,31.6874 -81.56222,31.6249 -81.56222,31.6249z" fill="url(#bottom)"/>
  </g>
 </g>
</svg>